<?xml version="1.0" standalone="no"?>
<!DOCTYPE svg PUBLIC "-//W3C//DTD SVG 20010904//EN"
 "http://www.w3.org/TR/2001/REC-SVG-20010904/DTD/svg10.dtd">
<svg version="1.0" xmlns="http://www.w3.org/2000/svg"
 width="1080.000000pt" height="1080.000000pt" viewBox="0 0 1080.000000 1080.000000"
 preserveAspectRatio="xMidYMid meet">
<metadata>
Created by potrace 1.14, written by Peter Selinger 2001-2017
</metadata>
<g transform="translate(0.000000,1080.000000) scale(0.100000,-0.100000)"
fill="#000000" stroke="none">
<path d="M0 5400 l0 -5400 5400 0 5400 0 0 5400 0 5400 -5400 0 -5400 0 0
-5400z m7176 2739 c313 -43 609 -227 777 -481 70 -107 100 -167 137 -278 62
-183 60 -122 60 -1982 0 -1153 -3 -1721 -11 -1774 -43 -313 -227 -609 -481
-777 -106 -70 -167 -100 -276 -137 -188 -63 -74 -60 -2345 -60 -1165 0 -2067
4 -2065 9 2 4 504 532 1117 1172 l1114 1164 -1276 3 -1277 2 0 1575 0 1575
2224 0 c1529 0 2249 -3 2302 -11z"/>
<path d="M4304 7323 c2 -5 561 -424 1240 -933 679 -509 1235 -928 1236 -932 0
-4 -410 -436 -911 -960 -502 -524 -928 -970 -948 -991 l-35 -37 1104 2 1105 3
57 28 c65 32 121 89 152 156 l21 46 0 1695 0 1695 -21 46 c-31 67 -87 124
-152 156 l-57 28 -1398 3 c-769 1 -1396 -1 -1393 -5z"/>
<path d="M3470 6365 l0 -545 727 0 c619 0 725 2 713 14 -24 22 -1428 1076
-1434 1076 -3 0 -6 -245 -6 -545z"/>
</g>
</svg>
